<?xml version="1.0" encoding="UTF-8"?>
<svg width="680" height="540" viewBox="0 0 680 540" xmlns="http://www.w3.org/2000/svg" style="background:#fff;font-family:system-ui,sans-serif">
<defs><marker id="a" viewBox="0 0 10 10" refX="8" refY="5" markerWidth="6" markerHeight="6" orient="auto-start-reverse"><path d="M2 1L8 5L2 9" fill="none" stroke="#666" stroke-width="1.5"/></marker></defs>
<polygon points="172,252 108,252 100,260 100,463 200,463 200,260 192,252" fill="#E8A020" stroke="#854F0B" stroke-width="0.5"/>
<rect x="120" y="441" width="60" height="22" fill="#BA7517" stroke="#854F0B" stroke-width="0.5"/>
<rect x="120" y="368" width="60" height="73" fill="#FAEEDA" stroke="#854F0B" stroke-width="0.3"/>
<ellipse cx="150" cy="404" rx="18" ry="13" fill="#E8A020" stroke="#854F0B" stroke-width="0.5"/>
<text x="150" y="408" text-anchor="middle" dominant-baseline="central" fill="#633806" font-size="11">8.31mm oval</text>
<rect x="120" y="357" width="60" height="11" fill="#EF9F27" stroke="#854F0B" stroke-width="0.3"/>
<rect x="120" y="346" width="60" height="11" fill="#D3D1C7" stroke="#5F5E5A" stroke-width="0.3"/>
<rect x="124" y="347" width="52" height="9" fill="#B4B2A9"/>
<rect x="120" y="252" width="60" height="94" fill="#FAEEDA" stroke="#854F0B" stroke-width="0.3"/>
<rect x="128" y="258" width="44" height="67" fill="#E8A020" stroke="#854F0B" stroke-width="0.5"/>
<text x="150" y="295" text-anchor="middle" dominant-baseline="central" fill="#633806" font-size="11">12.0mm rect</text>
<rect x="120" y="252" width="60" height="11" fill="#EF9F27" stroke="#854F0B" stroke-width="0.3"/>
<rect x="80" y="463" width="140" height="17" fill="#854F0B" stroke="#633806" stroke-width="0.5"/>
<line x1="180" y1="471" x2="310" y2="471" stroke="#ccc" stroke-width="0.5" stroke-dasharray="3,2"/>
<text x="316" y="475" dominant-baseline="central" fill="#444" font-size="12">flex strip 1.2mm</text>
<line x1="180" y1="452" x2="310" y2="452" stroke="#ccc" stroke-width="0.5" stroke-dasharray="3,2"/>
<text x="316" y="456" dominant-baseline="central" fill="#444" font-size="12">USB-C floor 1.6mm</text>
<line x1="180" y1="404" x2="310" y2="404" stroke="#ccc" stroke-width="0.5" stroke-dasharray="3,2"/>
<text x="316" y="408" dominant-baseline="central" fill="#444" font-size="12">USB-C slot + cap 5.2mm</text>
<line x1="180" y1="351" x2="310" y2="351" stroke="#ccc" stroke-width="0.5" stroke-dasharray="3,2"/>
<text x="316" y="355" dominant-baseline="central" fill="#444" font-size="12">air gap 0.8mm</text>
<line x1="180" y1="295" x2="310" y2="295" stroke="#ccc" stroke-width="0.5" stroke-dasharray="3,2"/>
<text x="316" y="299" dominant-baseline="central" fill="#444" font-size="12">USB-A slot 5.5mm</text>
<line x1="180" y1="257" x2="310" y2="257" stroke="#ccc" stroke-width="0.5" stroke-dasharray="3,2"/>
<text x="316" y="261" dominant-baseline="central" fill="#444" font-size="12">USB-A cap 2.0mm</text>
<line x1="150" y1="222" x2="150" y2="248" stroke="#378ADD" stroke-width="2" marker-end="url(#a)"/>
<text x="150" y="210" text-anchor="middle" fill="#185FA5" font-size="12" font-weight="500">USB-A insert top</text>
<line x1="150" y1="500" x2="150" y2="484" stroke="#1D9E75" stroke-width="2" marker-end="url(#a)"/>
<text x="150" y="516" text-anchor="middle" fill="#0F6E56" font-size="12" font-weight="500">USB-C insert bottom</text>
<line x1="92" y1="252" x2="92" y2="463" stroke="#888" stroke-width="0.5"/>
<line x1="88" y1="252" x2="96" y2="252" stroke="#888" stroke-width="0.5"/>
<line x1="88" y1="463" x2="96" y2="463" stroke="#888" stroke-width="0.5"/>
<text x="75" y="358" text-anchor="middle" dominant-baseline="central" fill="#666" font-size="11">~17mm</text>
<text x="150" y="30" text-anchor="middle" fill="#222" font-size="15" font-weight="500">Pod cross-section (v17)</text>
<text x="150" y="50" text-anchor="middle" fill="#666" font-size="12">one of 10 pods on flex strip</text>
</svg>