<?xml version="1.0" encoding="UTF-8"?>
<svg width="680" height="400" viewBox="0 0 680 400" xmlns="http://www.w3.org/2000/svg" style="background:#fff;font-family:system-ui,sans-serif">
<line x1="80" y1="40" x2="80" y2="380" stroke="#ddd" stroke-width="1.5"/>
<text x="40" y="80" text-anchor="middle" fill="#888" font-size="11">Mar 28</text>
<text x="40" y="240" text-anchor="middle" fill="#888" font-size="11">Mar 30</text>
<line x1="40" y1="190" x2="640" y2="190" stroke="#eee" stroke-width="0.5" stroke-dasharray="4,3"/>
<circle cx="80" cy="75" r="6" fill="#EF9F27" stroke="#BA7517" stroke-width="1"/>
<rect x="96" y="57" width="185" height="36" rx="6" fill="#FAEEDA" stroke="#BA7517" stroke-width="0.5"/>
<text x="188" y="71" text-anchor="middle" fill="#633806" font-size="12" font-weight="500">USB-A fit strip v7-v8</text>
<text x="188" y="85" text-anchor="middle" fill="#854F0B" font-size="11">13.5-11.25mm, locked 12.0mm</text>
<circle cx="80" cy="135" r="6" fill="#EF9F27" stroke="#BA7517" stroke-width="1"/>
<rect x="96" y="117" width="185" height="36" rx="6" fill="#FAEEDA" stroke="#BA7517" stroke-width="0.5"/>
<text x="188" y="131" text-anchor="middle" fill="#633806" font-size="12" font-weight="500">USB-C fit tests v8-v9c</text>
<text x="188" y="145" text-anchor="middle" fill="#854F0B" font-size="11">3 rounds, locked 8.31mm</text>
<circle cx="80" cy="225" r="6" fill="#7F77DD" stroke="#534AB7" stroke-width="1"/>
<rect x="96" y="207" width="185" height="36" rx="6" fill="#EEEDFE" stroke="#534AB7" stroke-width="0.5"/>
<text x="188" y="221" text-anchor="middle" fill="#3C3489" font-size="12" font-weight="500">USB Buddy v1-v10</text>
<text x="188" y="235" text-anchor="middle" fill="#534AB7" font-size="11">combined pod, labels, BT, vents</text>
<circle cx="80" cy="320" r="8" fill="#534AB7" stroke="#3C3489" stroke-width="1.5"/>
<rect x="96" y="300" width="185" height="40" rx="6" fill="#EEEDFE" stroke="#534AB7" stroke-width="1"/>
<text x="188" y="316" text-anchor="middle" fill="#3C3489" font-size="12" font-weight="500">USB Buddy v17 - current</text>
<text x="188" y="332" text-anchor="middle" fill="#534AB7" font-size="11">chamfer, 1.2mm strip, on GitHub</text>
<rect x="310" y="40" width="340" height="320" rx="8" fill="#f9f9f9" stroke="#eee" stroke-width="0.5"/>
<text x="480" y="64" text-anchor="middle" fill="#222" font-size="13" font-weight="500">Final specs</text>
<text x="326" y="90" fill="#444" font-size="12">Slot dimensions (fit-tested)</text>
<text x="326" y="110" fill="#185FA5" font-size="12">USB-A  12.0 x 5.5mm  rectangular</text>
<text x="326" y="128" fill="#0F6E56" font-size="12">USB-C  8.31 x 3.2mm  oval</text>
<text x="326" y="156" fill="#444" font-size="12">Pod structure</text>
<text x="326" y="174" fill="#666" font-size="11">wall 2.0mm  |  chamfer 2.0mm</text>
<text x="326" y="190" fill="#666" font-size="11">strip 1.2mm  |  gap 2.0mm</text>
<text x="326" y="206" fill="#666" font-size="11">pod height ~17mm  |  10 pods</text>
<text x="326" y="234" fill="#444" font-size="12">Labels</text>
<text x="326" y="252" fill="#666" font-size="11">Front: U S B B U D D Y</text>
<text x="326" y="268" fill="#666" font-size="11">Rear:  y u r y g _ 2 0 2 6</text>
<text x="326" y="296" fill="#444" font-size="12">Repo</text>
<text x="326" y="314" fill="#185FA5" font-size="11">github.com/yury-g/usb-buddy</text>
<text x="326" y="330" fill="#666" font-size="11">tag: v16-chamfer-good (rollback point)</text>
</svg>